<svg xmlns="http://www.w3.org/2000/svg" viewBox="0 0 500 316" width="500" height="316" font-family="ui-monospace, SFMono-Regular, Menlo, Consolas, Liberation Mono, monospace" role="img" aria-label="Language breakdown: TypeScript 29%, Kotlin 16%, JavaScript 13%, Java 12%, C++ 11%, Shell 6%, Go 5%, CSS 3%, Other 6%">
<title>Language breakdown: TypeScript 29%, Kotlin 16%, JavaScript 13%, Java 12%, C++ 11%, Shell 6%, Go 5%, CSS 3%, Other 6%</title>
<defs>
  <linearGradient id="g1d" x1="0" y1="0" x2="0" y2="1">
    <stop offset="0%" stop-color="#12162a"/>
    <stop offset="100%" stop-color="#080b18"/>
  </linearGradient>
  <radialGradient id="glow1f" cx="1" cy="0" r="1">
    <stop offset="0%" stop-color="#a884de" stop-opacity="0.13"/>
    <stop offset="100%" stop-color="#a884de" stop-opacity="0"/>
  </radialGradient>
  <pattern id="grid1e" width="26" height="26" patternUnits="userSpaceOnUse">
    <path d="M26 0H0V26" fill="none" stroke="#222846" stroke-width="1" opacity="0.42"/>
  </pattern>
</defs>
<style>
.fu{animation:fu .7s cubic-bezier(.2,.7,.3,1) both}
@keyframes fu{from{opacity:0;transform:translateY(7px)}to{opacity:1;transform:translateY(0)}}
.fi{animation:fi .8s ease both}
@keyframes fi{from{opacity:0}to{opacity:1}}
.gw{animation:gw 1.05s cubic-bezier(.2,.75,.3,1) both;transform-origin:left center}
@keyframes gw{from{transform:scaleX(0)}to{transform:scaleX(1)}}
.pop{animation:pop .55s cubic-bezier(.2,1.3,.4,1) both}
@keyframes pop{from{opacity:0;transform:scale(.55)}to{opacity:1;transform:scale(1)}}
</style>

  <rect x="0.75" y="0.75" width="498.5" height="314.5" rx="13" fill="url(#g1d)"/>
  <rect x="0.75" y="0.75" width="498.5" height="314.5" rx="13" fill="url(#grid1e)"/>
  <rect x="0.75" y="0.75" width="498.5" height="314.5" rx="13" fill="url(#glow1f)"/>
  <rect x="0.75" y="0.75" width="498.5" height="314.5" rx="13" fill="none" stroke="#2b3152" stroke-width="1.5"/>
  <text x="22" y="31" font-size="12" letter-spacing="1.6" fill="#6f78a3">~/languages --by-bytes</text>
  <circle cx="474" cy="27" r="3.4" fill="#a884de">
    <animate attributeName="opacity" values="1;0.25;1" dur="2.6s" repeatCount="indefinite"/>
  </circle>
  <line x1="22" y1="43" x2="478" y2="43" stroke="#2b3152" stroke-width="1" opacity="0.75"/>
  <clipPath id="bar1g"><rect x="26" y="62" width="0" height="22" rx="6">
    <animate attributeName="width" values="0;448" dur="1.25s" begin="0.2s" fill="freeze"
             keyTimes="0;1" keySplines="0.2 0.75 0.25 1" calcMode="spline"/>
  </rect></clipPath>
  <rect x="26" y="62" width="448" height="22" rx="6" fill="#2b3152" opacity="0.45"/>
  <g clip-path="url(#bar1g)"><rect x="26" y="62" width="131" height="22" fill="#3178c6" opacity="0">
      <animate attributeName="opacity" values="0;1" begin="0.25s" dur="0.45s" fill="freeze"/>
    </rect><rect x="157" y="62" width="70.64" height="22" fill="#A97BFF" opacity="0">
      <animate attributeName="opacity" values="0;1" begin="0.31s" dur="0.45s" fill="freeze"/>
    </rect><rect x="227.64" y="62" width="58.77" height="22" fill="#f1e05a" opacity="0">
      <animate attributeName="opacity" values="0;1" begin="0.37s" dur="0.45s" fill="freeze"/>
    </rect><rect x="286.41" y="62" width="55.64" height="22" fill="#b07219" opacity="0">
      <animate attributeName="opacity" values="0;1" begin="0.43s" dur="0.45s" fill="freeze"/>
    </rect><rect x="342.05" y="62" width="47.08" height="22" fill="#f34b7d" opacity="0">
      <animate attributeName="opacity" values="0;1" begin="0.49s" dur="0.45s" fill="freeze"/>
    </rect><rect x="389.14" y="62" width="25.68" height="22" fill="#89e051" opacity="0">
      <animate attributeName="opacity" values="0;1" begin="0.55s" dur="0.45s" fill="freeze"/>
    </rect><rect x="414.81" y="62" width="20.24" height="22" fill="#00ADD8" opacity="0">
      <animate attributeName="opacity" values="0;1" begin="0.61s" dur="0.45s" fill="freeze"/>
    </rect><rect x="435.06" y="62" width="11.23" height="22" fill="#563d7c" opacity="0">
      <animate attributeName="opacity" values="0;1" begin="0.67s" dur="0.45s" fill="freeze"/>
    </rect><rect x="446.29" y="62" width="27.71" height="22" fill="#6f78a3" opacity="0">
      <animate attributeName="opacity" values="0;1" begin="0.73s" dur="0.45s" fill="freeze"/>
    </rect></g>
  <text x="26" y="100" font-size="9.5" letter-spacing="1" fill="#6f78a3">6.4 MB OF SOURCE ACROSS 72 REPOSITORIES</text>
  <g class="fu" style="animation-delay:0.4s">
      <circle cx="30" cy="118" r="4" fill="#3178c6"/>
      <text x="41" y="122" font-size="11.5" fill="#e6ebff">TypeScript</text>
      <text x="238" y="122" text-anchor="end" font-size="11" fill="#a7b0d6">29.2%</text>
      <rect x="26" y="128" width="212" height="3.5" rx="1.75" fill="#2b3152" opacity="0.6"/>
      <rect x="26" y="128" width="212" height="3.5" rx="1.75" fill="#3178c6" opacity="0.9"
            class="gw" style="animation-delay:0.5s;transform-origin:26px 130px"/>
    </g><g class="fu" style="animation-delay:0.47s">
      <circle cx="30" cy="151" r="4" fill="#A97BFF"/>
      <text x="41" y="155" font-size="11.5" fill="#e6ebff">Kotlin</text>
      <text x="238" y="155" text-anchor="end" font-size="11" fill="#a7b0d6">15.8%</text>
      <rect x="26" y="161" width="212" height="3.5" rx="1.75" fill="#2b3152" opacity="0.6"/>
      <rect x="26" y="161" width="114.32" height="3.5" rx="1.75" fill="#A97BFF" opacity="0.9"
            class="gw" style="animation-delay:0.57s;transform-origin:26px 163px"/>
    </g><g class="fu" style="animation-delay:0.54s">
      <circle cx="30" cy="184" r="4" fill="#f1e05a"/>
      <text x="41" y="188" font-size="11.5" fill="#e6ebff">JavaScript</text>
      <text x="238" y="188" text-anchor="end" font-size="11" fill="#a7b0d6">13.1%</text>
      <rect x="26" y="194" width="212" height="3.5" rx="1.75" fill="#2b3152" opacity="0.6"/>
      <rect x="26" y="194" width="95.11" height="3.5" rx="1.75" fill="#f1e05a" opacity="0.9"
            class="gw" style="animation-delay:0.64s;transform-origin:26px 196px"/>
    </g><g class="fu" style="animation-delay:0.61s">
      <circle cx="30" cy="217" r="4" fill="#b07219"/>
      <text x="41" y="221" font-size="11.5" fill="#e6ebff">Java</text>
      <text x="238" y="221" text-anchor="end" font-size="11" fill="#a7b0d6">12.4%</text>
      <rect x="26" y="227" width="212" height="3.5" rx="1.75" fill="#2b3152" opacity="0.6"/>
      <rect x="26" y="227" width="90.05" height="3.5" rx="1.75" fill="#b07219" opacity="0.9"
            class="gw" style="animation-delay:0.71s;transform-origin:26px 229px"/>
    </g><g class="fu" style="animation-delay:0.68s">
      <circle cx="30" cy="250" r="4" fill="#f34b7d"/>
      <text x="41" y="254" font-size="11.5" fill="#e6ebff">C++</text>
      <text x="238" y="254" text-anchor="end" font-size="11" fill="#a7b0d6">10.5%</text>
      <rect x="26" y="260" width="212" height="3.5" rx="1.75" fill="#2b3152" opacity="0.6"/>
      <rect x="26" y="260" width="76.2" height="3.5" rx="1.75" fill="#f34b7d" opacity="0.9"
            class="gw" style="animation-delay:0.78s;transform-origin:26px 262px"/>
    </g><g class="fu" style="animation-delay:0.75s">
      <circle cx="266" cy="118" r="4" fill="#89e051"/>
      <text x="277" y="122" font-size="11.5" fill="#e6ebff">Shell</text>
      <text x="474" y="122" text-anchor="end" font-size="11" fill="#a7b0d6">5.7%</text>
      <rect x="262" y="128" width="212" height="3.5" rx="1.75" fill="#2b3152" opacity="0.6"/>
      <rect x="262" y="128" width="41.55" height="3.5" rx="1.75" fill="#89e051" opacity="0.9"
            class="gw" style="animation-delay:0.85s;transform-origin:262px 130px"/>
    </g><g class="fu" style="animation-delay:0.82s">
      <circle cx="266" cy="151" r="4" fill="#00ADD8"/>
      <text x="277" y="155" font-size="11.5" fill="#e6ebff">Go</text>
      <text x="474" y="155" text-anchor="end" font-size="11" fill="#a7b0d6">4.5%</text>
      <rect x="262" y="161" width="212" height="3.5" rx="1.75" fill="#2b3152" opacity="0.6"/>
      <rect x="262" y="161" width="32.76" height="3.5" rx="1.75" fill="#00ADD8" opacity="0.9"
            class="gw" style="animation-delay:0.92s;transform-origin:262px 163px"/>
    </g><g class="fu" style="animation-delay:0.89s">
      <circle cx="266" cy="184" r="4" fill="#563d7c"/>
      <text x="277" y="188" font-size="11.5" fill="#e6ebff">CSS</text>
      <text x="474" y="188" text-anchor="end" font-size="11" fill="#a7b0d6">2.5%</text>
      <rect x="262" y="194" width="212" height="3.5" rx="1.75" fill="#2b3152" opacity="0.6"/>
      <rect x="262" y="194" width="18.18" height="3.5" rx="1.75" fill="#563d7c" opacity="0.9"
            class="gw" style="animation-delay:0.99s;transform-origin:262px 196px"/>
    </g><g class="fu" style="animation-delay:0.96s">
      <circle cx="266" cy="217" r="4" fill="#6f78a3"/>
      <text x="277" y="221" font-size="11.5" fill="#e6ebff">Other</text>
      <text x="474" y="221" text-anchor="end" font-size="11" fill="#a7b0d6">6.2%</text>
      <rect x="262" y="227" width="212" height="3.5" rx="1.75" fill="#2b3152" opacity="0.6"/>
      <rect x="262" y="227" width="44.84" height="3.5" rx="1.75" fill="#6f78a3" opacity="0.9"
            class="gw" style="animation-delay:1.06s;transform-origin:262px 229px"/>
    </g>
  <text x="26" y="298" font-size="9" fill="#6f78a3" opacity="0.8">counted from the GitHub languages API, every original repo, weighted by bytes</text>
</svg>
